<svg width="45" height="46" viewBox="0 0 45 46" fill="none" xmlns="http://www.w3.org/2000/svg">
<path d="M1.66113 4.94727C1.125 5.10547 0.46582 5.70312 0.210938 6.25684L0 6.69629V21.2861V35.876L0.210938 36.3154C0.46582 36.8779 0.887695 37.2998 1.4502 37.5547L1.88965 37.7656H15.9346H29.9707V35.2607V32.7559L29.6543 32.3428C28.5469 30.8926 28.0195 28.7041 28.3359 26.8672C28.7666 24.4238 30.2607 22.4814 32.5371 21.4268C33.5479 20.9521 34.4531 20.7676 35.6396 20.7764C39.4717 20.8115 42.583 23.8174 42.7764 27.6582C42.8643 29.3545 42.4688 30.7607 41.5107 32.167L41.0449 32.8525V35.3047V37.7656H42.082C42.9785 37.7656 43.1719 37.7393 43.5498 37.5547C43.7959 37.4492 44.1299 37.2207 44.2881 37.0537C44.4551 36.8955 44.6836 36.5615 44.7891 36.3154L45 35.876V26.1025V16.3291L40.5 16.3027C36.0615 16.2764 35.9824 16.2676 35.499 16.0742C34.9189 15.8457 34.3477 15.3799 34.04 14.8789C33.5918 14.1758 33.5742 13.9736 33.5742 9.21875V4.80664L17.8242 4.81543C4.5 4.81543 2.00391 4.8418 1.66113 4.94727ZM30.1465 13.9473V15.2656H17.8418H5.53711V13.9473V12.6289H17.8418H30.1465V13.9473ZM26.3672 23.0879V23.791H15.9521H5.53711V23.0879V22.3848H15.9521H26.3672V23.0879ZM17.7539 27.7021V28.3613H11.6455H5.53711V27.7021V27.043H11.6455H17.7539V27.7021Z" fill="#3996F7"/>
<path d="M34.9805 9.21877C34.9805 12.1631 35.0156 13.7539 35.0771 13.9209C35.1914 14.2285 35.4727 14.5362 35.8154 14.7207C36.0527 14.8526 36.5889 14.8701 40.5439 14.8965C42.9961 14.9141 45 14.8877 45 14.8526C45 14.8174 42.75 12.5235 39.9902 9.77248L34.9805 4.76272V9.21877Z" fill="#7FAEE5"/>
<path d="M34.3652 22.2529C32.2383 22.7188 30.5684 24.2041 29.9092 26.1992C29.7158 26.7969 29.6719 27.0781 29.6719 27.9219C29.6631 29.1084 29.7773 29.6357 30.2432 30.6201C31.2188 32.668 33.1699 33.8984 35.4463 33.916C36.5449 33.916 37.1514 33.7842 38.1445 33.3096C39.6123 32.6064 40.7285 31.2705 41.1943 29.6445C41.4316 28.8359 41.4668 27.4736 41.2734 26.6914C40.6318 24.0723 38.4434 22.2705 35.7715 22.1562C35.2354 22.1387 34.7256 22.165 34.3652 22.2529Z" fill="#7FAEE5"/>
<path d="M31.377 37.6338C31.377 39.5938 31.4033 41.1934 31.4473 41.1934C31.4824 41.1934 32.4141 40.833 33.5215 40.3936L35.5254 39.585L37.4326 40.3408C38.4785 40.7627 39.4014 41.123 39.4893 41.1582C39.6299 41.2109 39.6387 41.0088 39.6387 37.6514V34.083L38.918 34.4697C37.8457 35.0322 37.1338 35.2256 35.9385 35.2783C34.4004 35.3486 33.1875 35.0762 31.9395 34.3818L31.377 34.0654V37.6338Z" fill="#7FAEE5"/>
</svg>
