<svg width="20" height="21" viewBox="0 0 20 21" fill="none" xmlns="http://www.w3.org/2000/svg">
<g clip-path="url(#clip0_5_1869)">
<path d="M13.3333 10.9039C13.3333 7.34258 9.99999 2.57056 9.99999 2.57056C9.99999 2.57056 6.66666 7.34258 6.66666 10.9039C6.66666 14.4652 9.99999 19.2372 9.99999 19.2372C9.99999 19.2372 13.3333 14.4652 13.3333 10.9039Z" stroke="white" stroke-width="0.833333"/>
<path d="M3.33331 6.73721C3.33331 6.73721 7.34135 8.40388 9.99998 8.40388C12.6586 8.40388 16.6666 6.73721 16.6666 6.73721" stroke="white" stroke-width="0.833333"/>
<path d="M16.6667 14.2372C16.6667 14.2372 12.4081 13.4039 9.58332 13.4039C6.75852 13.4039 2.49999 14.2372 2.49999 14.2372" stroke="white" stroke-width="0.833333"/>
</g>
<rect x="2.08334" y="2.98722" width="15.8333" height="15.8333" rx="7.91667" stroke="white" stroke-width="0.833333"/>
<defs>
<clipPath id="clip0_5_1869">
<rect x="1.66667" y="2.57056" width="16.6667" height="16.6667" rx="8.33333" fill="white"/>
</clipPath>
</defs>
</svg>
