<svg width="20" height="21" viewBox="0 0 20 21" fill="none" xmlns="http://www.w3.org/2000/svg">
<path fill-rule="evenodd" clip-rule="evenodd" d="M4.44575 4.23721C2.91162 4.23721 1.66797 5.5164 1.66797 7.09436V14.7134C1.66797 16.2914 2.91162 17.5705 4.44575 17.5705H15.5569C17.091 17.5705 18.3346 16.2914 18.3346 14.7134V7.09436C18.3346 5.5164 17.091 4.23721 15.5569 4.23721H4.44575ZM6.35521 7.75316C5.99583 7.46565 5.47142 7.52392 5.18391 7.8833C4.8964 8.24269 4.95467 8.7671 5.31406 9.0546L9.48072 12.3879L10.0013 12.8044L10.5219 12.3879L14.6885 9.0546C15.0479 8.7671 15.1062 8.24269 14.8187 7.8833C14.5312 7.52392 14.0068 7.46565 13.6474 7.75316L10.0013 10.67L6.35521 7.75316Z" fill="#5D6B8A"/>
</svg>
