<svg width="20" height="21" viewBox="0 0 20 21" fill="none" xmlns="http://www.w3.org/2000/svg">
<path fill-rule="evenodd" clip-rule="evenodd" d="M10.0908 6.71948C9.5252 4.67578 7.48882 3.41348 5.47366 4.08563C4.16075 4.52353 3.36153 5.34048 3.09659 6.43014C2.85032 7.44297 3.107 8.53596 3.50564 9.50187C4.30841 11.447 5.89725 13.3741 6.79683 14.2744C7.67567 15.1539 9.59999 16.7496 11.5488 17.5597C12.5164 17.9619 13.6135 18.2231 14.6309 17.9774C15.726 17.713 16.547 16.9097 16.9874 15.5875C17.6585 13.5725 16.3985 11.5345 14.3552 10.9682L14.3552 10.9682C12.9586 10.581 11.4939 10.9502 10.4944 11.8473C10.2597 11.6656 10.0341 11.4672 9.81889 11.2518C9.60264 11.0354 9.40344 10.8084 9.22114 10.5723C10.1112 9.57237 10.4763 8.11211 10.0908 6.71949L10.0908 6.71948Z" fill="#5D6B8A"/>
</svg>
