<svg width="1110" height="120" viewBox="0 0 1110 120" fill="none" xmlns="http://www.w3.org/2000/svg">
<g clip-path="url(#clip0_1_246)">
<rect width="1110" height="120" rx="20" fill="#F6FCFF"/>
<g opacity="0.4">
<path d="M2.26522 52.8468C3.57087 52.9186 4.8584 53.0804 6.12778 53.314C6.36352 55.74 9.8997 55.5064 9.8997 53.1523C9.8997 51.2653 7.37904 50.5106 6.36353 52.2178C5.47496 52.0561 4.29623 51.8763 2.88177 51.7865C2.26521 51.1216 1.75746 50.5465 1.01396 49.9175C0.941427 50.888 0.995865 51.6427 1.05027 52.5413C0.12543 53.6195 -0.581822 54.5719 -1.07144 55.3087C-3.01179 54.8415 -4.22675 57.1418 -2.8667 58.4716C-1.16209 60.1249 1.48548 57.7707 -0.0921872 55.9198C0.615041 54.8415 1.39478 53.8172 2.26522 52.8468Z" fill="#C3D5E3"/>
<path d="M47.1833 49.1091C48.1989 49.9357 49.1418 50.8163 50.0304 51.7328C48.7792 53.8174 51.7894 55.7043 53.1857 53.7994C54.31 52.2719 52.7142 50.1873 50.8827 50.978C50.2661 50.3311 49.4138 49.5044 48.3258 48.6059C48.217 47.7074 48.1625 46.9526 47.9086 46.0001C47.2739 46.7369 46.875 47.3839 46.3673 48.1566C44.971 48.4801 43.8467 48.8575 42.9944 49.163C41.7069 47.6534 39.3494 48.8036 39.6758 50.6725C40.0748 52.9907 43.6109 52.6493 43.4296 50.2232C44.6627 49.774 45.914 49.3966 47.1833 49.1091Z" fill="#C3D5E3"/>
<path d="M85.7545 72.2555C86.0809 73.5134 86.3347 74.7714 86.4979 76.0293C84.2493 76.9997 85.5731 80.2704 87.8217 79.5336C89.6351 78.9406 89.5807 76.3528 87.6404 75.9215C87.5134 75.0409 87.314 73.8728 86.9694 72.5071C87.4228 71.7164 87.8217 71.0694 88.1844 70.1709C87.2233 70.4045 86.516 70.692 85.6637 71.0155C84.3399 70.4764 83.2157 70.117 82.3453 69.8654C82.2002 67.8886 79.607 67.4573 78.7728 69.1466C77.721 71.2671 80.7857 73.0282 82.0732 70.9616C83.3245 71.321 84.5576 71.7523 85.7545 72.2555Z" fill="#C3D5E3"/>
<path d="M103.217 113.444C102.746 114.648 102.184 115.816 101.585 116.949C99.1918 116.409 98.3214 119.842 100.588 120.561C102.402 121.154 103.907 118.997 102.583 117.524C103.018 116.733 103.544 115.691 104.07 114.379C104.904 114.001 105.611 113.714 106.445 113.193C105.539 112.815 104.795 112.654 103.907 112.402C103.163 111.198 102.456 110.246 101.912 109.545C102.964 107.873 101.132 106.004 99.4457 106.885C97.3421 107.981 98.7747 111.198 101.041 110.281C101.821 111.288 102.547 112.348 103.217 113.444Z" fill="#C3D5E3"/>
<path d="M3.29896 55.3092C4.13313 55.435 4.94917 55.5967 5.80147 55.8124C6.21856 55.9202 7.66929 54.9677 2.86376 54.3028C-0.0195526 58.1665 1.68505 57.8071 1.90266 57.4297C2.33788 56.675 2.80934 55.9741 3.29896 55.3092Z" fill="#C3D5E3"/>
<path d="M46.5668 51.697C47.1652 52.2721 47.7455 52.9011 48.3076 53.566C48.5796 53.8895 50.3205 53.9613 46.8206 50.6368C42.1964 52.0744 43.7923 52.7753 44.1731 52.5956C44.9891 52.2541 45.787 51.9486 46.5668 51.697Z" fill="#C3D5E3"/>
<path d="M83.7235 73.9984C83.8685 74.8071 83.9593 75.6517 84.0137 76.5143C84.0499 76.9456 85.3918 78.0059 84.5577 73.2796C79.9697 71.7521 80.8402 73.2437 81.2573 73.3335C82.1096 73.5312 82.9256 73.7468 83.7235 73.9984Z" fill="#C3D5E3"/>
<path d="M100.552 113.677C100.189 114.414 99.7722 115.151 99.3007 115.888C99.0649 116.247 99.5364 117.901 101.64 113.588C98.8291 109.688 98.6478 111.395 98.938 111.701C99.5183 112.348 100.062 112.995 100.552 113.677Z" fill="#C3D5E3"/>
<path d="M24.7696 51.553C24.0261 51.1936 22.92 51.2834 21.0522 52.4156C20.3631 52.8469 20.0367 50.5826 17.9331 51.1397C15.6845 51.7327 16.2829 54.7338 16.2829 54.7338C16.2829 54.7338 20.5081 52.8828 25.0235 54.6439C29.1762 52.164 33.6553 53.2782 33.6553 53.2782C33.6553 53.2782 33.746 50.2232 31.4249 50.0075C29.2669 49.8098 29.3213 52.0741 28.5596 51.7866C26.5468 50.9959 25.4406 51.0678 24.7696 51.553Z" fill="#C3D5E3"/>
<path d="M66.1696 61.1851C65.7888 60.4663 64.8459 59.8912 62.6516 59.7295C61.8356 59.6756 62.9056 57.6449 60.8927 56.8901C58.7166 56.0635 57.429 58.831 57.429 58.831C57.429 58.831 61.9445 59.8014 64.5558 63.8628C69.3976 64.2761 72.3534 67.7983 72.3534 67.7983C72.3534 67.7983 74.2394 65.3903 72.4804 63.8448C70.8483 62.4251 69.5426 64.2941 69.1255 63.6112C67.9468 61.7602 66.9857 61.1851 66.1696 61.1851Z" fill="#C3D5E3"/>
<path d="M93.951 93.0833C94.0779 92.2746 93.6428 91.2683 91.9744 89.8486C91.3579 89.3274 93.4251 88.3211 92.2282 86.524C90.9589 84.5832 88.275 86.0747 88.275 86.0747C88.275 86.0747 91.3579 89.4892 91.0677 94.2874C94.7308 97.4502 95.0391 102.015 95.0391 102.015C95.0391 102.015 97.9949 101.152 97.4872 98.9058C97.0157 96.8032 94.8396 97.576 94.9122 96.7673C95.0391 94.5749 94.622 93.5685 93.951 93.0833Z" fill="#C3D5E3"/>
<path d="M27.6529 85.5713C22.7385 87.2605 14.27 85.5713 13.0731 76.4421C16.0834 75.2561 12.928 71.1588 10.9877 73.441C7.97742 73.2254 8.72094 78.3291 11.6949 77.0172C17.4434 84.2414 12.7286 91.4297 8.06811 93.712C5.09413 97.9531 -2.7579 101.511 -9.14109 94.8262C-7.40022 92.1126 -12.3871 90.639 -12.6047 93.6042C-15.1616 95.1856 -11.5348 98.8696 -9.90275 96.0841C-0.962658 98.582 -0.509293 107.136 -2.92112 111.701C-2.81232 116.858 -7.05569 124.316 -16.1771 122.609C-16.3766 119.392 -21.2909 121.117 -19.7133 123.651C-20.8557 126.419 -15.7238 127.299 -16.0683 124.1C-7.36397 120.92 -1.92375 127.569 -1.16212 132.672C1.99321 136.788 2.97243 145.288 -5.42363 149.223C-7.49092 146.743 -10.4468 150.985 -7.65414 152.117C-6.92878 155.01 -2.26829 152.746 -4.44438 150.338C0.723831 142.682 9.06548 144.91 12.7104 148.594C17.6973 150.086 23.5364 156.394 19.0936 164.463C15.9564 163.654 16.0834 168.811 19.0029 168.111C21.306 170.034 23.7359 165.469 20.5625 164.804C20.1998 155.603 28.2695 152.53 33.4014 153.393C38.3157 151.703 46.7843 153.393 47.9812 162.522C44.9709 163.708 48.1262 167.805 50.0665 165.523C53.0768 165.739 52.3334 160.635 49.3594 161.947C43.6109 154.722 48.3258 147.534 52.9862 145.234C55.9602 140.993 63.8122 137.435 70.1954 144.12C68.4545 146.833 73.4414 148.307 73.659 145.342C76.2159 143.76 72.5891 140.076 70.9752 142.862C62.0351 140.364 61.5818 131.81 63.9936 127.245C63.8848 122.088 68.1282 114.63 77.2496 116.337C77.4491 119.554 82.3633 117.829 80.7856 115.295C81.9281 112.527 76.7962 111.647 77.1408 114.846C68.4364 118.026 62.9962 111.377 62.2345 106.273C59.0792 102.158 58.0999 93.6581 66.496 89.7225C68.5633 92.2024 71.5192 87.9614 68.7266 86.8292C68.0012 83.9359 63.3407 86.2002 65.5168 88.6083C60.3667 96.2638 52.0069 94.0355 48.3619 90.3515C43.3751 88.8599 37.536 82.5522 41.9788 74.4833C45.116 75.292 44.9891 70.1344 42.0695 70.8353C39.7664 68.9124 37.3365 73.477 40.5099 74.1419C40.8545 83.3609 32.7848 86.4339 27.6529 85.5713ZM7.27021 64.6534C9.84525 65.6957 11.4592 68.8585 15.1041 66.8458C8.57587 61.6523 4.15115 64.0783 9.08361 62.1015C18.06 57.7526 15.6844 67.2412 22.2308 65.1026C22.2308 65.1026 18.8942 61.2389 15.5575 60.1607C19.5651 59.7114 23.1738 61.0053 25.7488 63.1618C27.9249 60.592 31.2797 58.723 35.3055 58.5254C32.1864 60.1248 29.557 64.4916 29.557 64.4916C36.3573 65.5339 32.4222 56.5666 42.0151 59.37C47.2195 60.5021 42.4503 58.8488 36.8831 65.0487C40.8001 66.4325 41.87 63.036 44.2456 61.5984C45.7144 63.9345 45.1341 67.4388 49.2868 67.942C47.0744 59.9451 42.0694 59.3161 47.2376 60.592C57.0844 62.2992 49.5226 68.6069 56.1052 70.6736C56.1052 70.6736 55.7063 65.6058 53.639 62.8024C57.157 64.7612 59.2969 67.9061 60.1129 71.1767C63.3951 70.3681 67.2032 70.7993 70.5943 72.9738C67.1307 72.4527 62.4158 74.4474 62.4158 74.4474C67.312 79.2635 69.4338 69.7031 75.5268 77.5563C79.063 81.5099 76.1796 77.3946 68.0012 79.1557C70.3586 82.5702 73.2238 80.4316 75.9983 80.6473C75.7989 83.3968 73.2601 85.8947 76.3066 88.7161C79.2624 80.9528 75.5812 77.5204 79.0085 81.5818C85.9539 88.6982 76.107 89.399 80.2053 94.898C80.2053 94.898 82.8892 90.5671 82.8711 87.0808C84.5394 90.7109 84.4125 94.5207 83.1432 97.6116C86.2804 98.8696 89.1092 101.439 90.5599 105.177C88.0574 102.733 83.0524 101.601 83.0524 101.601C84.1586 108.34 91.5392 101.853 91.8112 111.755C92.3371 117.02 92.4459 112.006 84.7752 108.682C84.6664 112.815 88.2388 112.761 90.3605 114.54C88.5652 116.643 85.0291 117.2 85.827 121.243C92.8267 116.696 91.8656 111.773 92.2464 117.038C93.6427 126.85 85.2648 121.674 85.3192 128.503C85.3192 128.503 90.0521 126.562 92.1194 123.741C91.3215 127.659 88.9642 130.66 86.0809 132.421C87.858 135.26 88.6377 138.998 87.5859 142.862C87.0056 139.429 83.6327 135.602 83.6327 135.602C80.5318 141.694 90.3605 140.759 84.7027 148.918C82.0007 153.482 85.0653 149.493 80.8401 142.323C78.3013 145.593 81.2209 147.642 81.8919 150.32C79.1899 150.985 75.9983 149.367 74.2574 153.105C82.6172 153.5 84.7752 148.954 81.9463 153.447C77.2495 162.198 73.5502 153.123 69.5426 158.676C69.5426 158.676 74.5294 159.862 77.8661 158.784C74.8921 161.479 71.2109 162.54 67.838 162.288C67.5841 165.631 66.0064 169.099 62.8692 171.615C64.4287 168.506 63.9754 163.438 63.9754 163.438C57.8461 166.565 66.351 171.525 56.9394 174.832C52.0432 176.952 56.885 175.497 57.7192 167.248C53.7297 168.416 54.8721 171.777 53.8203 174.328C51.2453 173.286 49.6314 170.123 45.9864 172.136C52.5147 177.33 56.9394 174.904 52.0069 176.88C43.0305 181.229 45.4062 171.741 38.8598 173.879C38.8598 173.879 42.1964 177.743 45.5331 178.821C41.5255 179.27 37.9168 177.977 35.3418 175.82C33.1657 178.39 29.8108 180.259 25.7851 180.456C28.9041 178.857 31.5336 174.49 31.5336 174.49C24.7333 173.448 28.6684 182.415 19.0755 179.612C13.871 178.48 18.6403 180.133 24.2074 173.933C20.2905 172.549 19.2206 175.946 16.845 177.383C15.3761 175.047 15.9383 171.525 11.8037 171.04C14.0161 179.037 19.0211 179.666 13.8529 178.39C4.00609 176.683 11.568 170.375 4.9853 168.308C4.9853 168.308 5.38428 173.376 7.45156 176.179C3.93356 174.221 1.79372 171.076 0.977688 167.805C-2.30458 168.614 -6.11273 168.183 -9.5038 166.008C-6.04019 166.529 -1.32532 164.534 -1.32532 164.534C-6.22151 159.718 -8.34322 169.279 -14.4363 161.426C-17.9724 157.472 -15.0891 161.587 -6.91064 159.826C-9.26807 156.412 -12.1333 158.55 -14.9078 158.335C-14.7083 155.585 -12.1695 153.087 -15.216 150.266C-18.1719 158.029 -14.4907 161.461 -17.918 157.4C-24.8634 150.284 -15.0165 149.583 -19.1148 144.084C-19.1148 144.084 -21.7987 148.415 -21.7805 151.901C-23.4489 148.271 -23.3401 144.461 -22.0526 141.37C-25.1898 140.112 -28.0187 137.542 -29.4694 133.805C-26.9669 136.249 -21.9619 137.381 -21.9619 137.381C-23.0681 130.642 -30.4487 137.129 -30.7207 127.227C-31.2466 121.962 -31.3554 126.976 -23.6846 130.3C-23.5758 126.167 -27.1482 126.221 -29.2699 124.442C-27.4746 122.339 -23.9385 121.782 -24.7364 117.739C-31.7361 122.285 -30.7751 127.209 -31.1559 121.944C-32.5522 112.132 -24.1742 117.307 -24.2286 110.479C-24.2286 110.479 -28.9616 112.419 -31.0289 115.241C-30.231 111.323 -27.8736 108.322 -24.9903 106.561C-26.7674 103.722 -27.5472 99.9837 -26.4954 96.1201C-25.9151 99.5525 -22.5422 103.38 -22.5422 103.38C-19.4413 97.2881 -29.2699 98.2226 -23.6121 90.0639C-20.9101 85.4994 -23.9748 89.4889 -19.7495 96.6592C-17.2108 93.3885 -20.1304 91.3398 -20.8013 88.6622C-18.0994 87.9973 -14.9077 89.6147 -13.1669 85.8768C-21.5267 85.4814 -23.6846 90.028 -20.8557 85.5353C-16.159 76.7836 -12.4597 85.8588 -8.45205 80.3058C-8.45205 80.3058 -13.4389 79.1198 -16.7756 80.198C-13.8016 77.5024 -10.1204 76.4421 -6.74744 76.6937C-6.5117 73.3512 -4.91586 69.8828 -1.77867 67.367C-3.3382 70.4759 -2.88487 75.5436 -2.88487 75.5436C3.24444 72.4167 -5.26043 67.4568 4.15115 64.1502C9.04734 62.0297 4.20557 63.4853 3.3714 71.7338C7.36089 70.5657 6.2003 67.2052 7.27021 64.6534ZM26.9638 77.3407C21.9588 81.7076 16.5186 75.4358 20.3086 71.7877C23.5002 70.3501 23.7722 72.848 23.4821 73.5489C22.9924 74.6451 24.6426 75.4717 25.0053 73.6387C25.3861 73.8005 25.8214 73.8903 25.9846 73.5309C27.9793 69.0921 19.8009 66.5762 20.1454 70.2423C20.0003 70.3141 16.7724 67.0435 15.4668 73.2254C14.8502 76.1007 16.6637 83.8461 21.6143 80.0722C22.394 80.3238 22.2308 83.289 24.6608 82.678C25.5856 82.4444 26.4742 82.0131 27.2902 81.4919C28.1788 81.8873 29.1399 82.1568 30.0828 82.2287C32.5853 82.4264 31.9325 79.5331 32.6397 79.1557C38.1525 82.067 38.6422 74.1239 37.5541 71.3924C35.2148 65.516 32.6035 69.2718 32.4403 69.2179C32.1683 65.5519 24.5338 69.3797 27.2358 73.4231C27.4534 73.7465 27.8705 73.6028 28.2332 73.3692C28.9041 75.1123 30.3911 74.0341 29.7202 73.0277C29.3031 72.3987 29.158 69.8649 32.5491 70.7634C36.9375 73.7465 32.6397 80.827 26.9638 77.3407ZM2.6279 87.4761C1.15903 93.9276 -6.94689 92.0227 -6.04018 86.8472C-4.31745 83.8281 -2.59473 85.6791 -2.43152 86.4339C-2.17765 87.6019 -0.346123 87.3144 -1.14402 85.6252C-0.726936 85.5353 -0.327942 85.3376 -0.418613 84.9603C-1.43412 80.216 -9.55822 82.9475 -7.09199 85.6971C-7.18266 85.8408 -11.7162 85.0681 -9.10485 90.8367C-7.88986 93.5143 -1.83307 98.7258 -0.0740623 92.7955C0.705704 92.5439 2.33775 95.0418 3.93355 93.1369C4.55011 92.4181 5.00346 91.5555 5.348 90.639C6.30911 90.4413 7.23393 90.0999 8.04996 89.6147C10.1898 88.3208 7.94118 86.344 8.30386 85.6252C14.4876 84.7626 10.1717 78.0595 7.66916 76.4781C2.30148 73.0816 2.4103 77.6462 2.2471 77.7001C-0.146599 74.8787 -4.06356 82.4444 0.542488 84.1336C0.923306 84.2774 1.15902 83.9 1.30409 83.5046C2.88175 84.529 3.44394 82.7858 2.30149 82.3545C1.59427 82.0849 -0.0196838 80.1261 3.24445 78.8682C8.57586 78.7424 9.2831 86.9909 2.6279 87.4761ZM-11.0271 109.832C-8.37948 115.906 -16.0865 119.087 -18.4076 114.378C-18.8066 110.928 -16.3041 111.431 -15.7419 111.934C-14.8352 112.743 -13.5296 111.449 -15.1798 110.515C-14.9078 110.191 -14.6901 109.814 -14.9803 109.544C-18.6252 106.291 -23.5577 113.228 -19.949 114.019C-19.9309 114.181 -24.0655 116.211 -18.5346 119.356C-15.9595 120.812 -7.98053 121.513 -10.0659 115.672C-9.59446 115.025 -6.7837 116.085 -6.62049 113.606C-6.54795 112.671 -6.69301 111.701 -6.94689 110.766C-6.29406 110.047 -5.73191 109.239 -5.36923 108.358C-4.40813 106.076 -7.40025 105.788 -7.52719 104.998C-3.02994 100.685 -10.5012 97.7913 -13.457 97.971C-19.8221 98.3484 -17.0295 101.978 -17.1201 102.122C-20.7288 101.242 -19.405 109.616 -14.6901 108.322C-14.3093 108.214 -14.3275 107.783 -14.4363 107.37C-12.5503 107.262 -13.1306 105.537 -14.3093 105.86C-15.0528 106.058 -17.519 105.411 -15.615 102.5C-11.4079 99.3188 -5.93138 105.555 -11.0271 109.832ZM-8.83285 135.889C-3.08435 139.268 -7.41838 146.33 -12.1151 143.868C-14.4907 141.316 -12.1695 140.274 -11.4079 140.328C-10.1929 140.454 -9.9209 138.639 -11.7887 138.854C-11.7524 138.441 -11.8068 137.992 -12.2058 137.956C-17.0838 137.453 -16.9569 145.935 -13.5658 144.479C-13.457 144.605 -15.5968 148.648 -9.24989 147.965C-6.31218 147.66 0.578728 143.545 -4.58948 140.058C-4.58948 139.25 -1.688 138.477 -3.02992 136.374C-3.53768 135.566 -4.2268 134.865 -4.98843 134.272C-4.89776 133.301 -4.91587 132.331 -5.13348 131.414C-5.71377 129.006 -8.30696 130.516 -8.88725 129.941C-7.7992 123.849 -15.5605 125.844 -17.8636 127.713C-22.796 131.72 -18.3714 133.032 -18.3532 133.212C-21.7987 134.595 -15.76 140.615 -12.7135 136.806C-12.4596 136.5 -12.7498 136.159 -13.0762 135.889C-11.6073 134.703 -13.1125 133.643 -13.8741 134.595C-14.3637 135.188 -16.7393 136.087 -16.9206 132.619C-15.3611 127.587 -7.23705 129.456 -8.83285 135.889ZM8.41267 155.675C15.0679 155.064 15.7388 163.294 10.4981 164.049C7.07073 163.366 8.32199 161.156 8.97482 160.779C10.0266 160.168 9.19244 158.55 7.79611 159.808C7.57851 159.449 7.27021 159.125 6.92566 159.323C2.68229 161.749 7.81422 168.56 9.70017 165.379C9.86337 165.415 10.5343 169.944 15.2492 165.703C17.4434 163.726 20.5806 156.412 14.3244 156.591C13.8529 155.944 15.7388 153.626 13.3995 152.71C12.511 152.35 11.5499 152.189 10.5706 152.135C10.081 151.29 9.48258 150.517 8.75722 149.906C6.85314 148.289 5.6563 151.021 4.85841 150.895C2.12016 145.324 -2.97553 151.47 -3.71903 154.309C-5.31482 160.419 -0.962673 158.91 -0.85387 159.035C-2.81235 162.162 5.63815 163.51 5.85575 158.658C5.87389 158.263 5.43869 158.155 5.0216 158.119C5.51122 156.322 3.66155 156.322 3.60715 157.526C3.57088 158.281 2.17456 160.401 -0.0196609 157.706C-1.7968 152.782 5.8739 149.565 8.41267 155.675ZM34.0905 161.659C39.0955 157.292 44.5357 163.564 40.7457 167.212C37.5541 168.65 37.2821 166.152 37.5722 165.451C38.0618 164.355 36.4116 163.528 36.049 165.361C35.6681 165.199 35.2329 165.11 35.0697 165.469C33.075 169.908 41.2534 172.424 40.9089 168.758C41.0539 168.686 44.2818 171.956 45.5875 165.774C46.204 162.899 44.3906 155.154 39.44 158.928C38.6602 158.676 38.8235 155.711 36.3935 156.322C35.4687 156.555 34.5801 156.987 33.764 157.508C32.8755 157.113 31.9144 156.843 30.9714 156.771C28.4689 156.573 29.1218 159.467 28.4145 159.844C22.9018 156.933 22.4122 164.876 23.5002 167.607C25.8395 173.484 28.4508 169.728 28.614 169.782C28.886 173.448 36.5205 169.62 33.8185 165.577C33.6009 165.253 33.1838 165.397 32.8211 165.631C32.1501 163.888 30.6631 164.966 31.3341 165.972C31.7512 166.619 31.8962 169.135 28.5052 168.236C24.1167 165.253 28.4145 158.173 34.0905 161.659ZM58.4083 151.524C59.8771 145.072 67.983 146.977 67.0763 152.153C65.3536 155.172 63.6308 153.321 63.4676 152.566C63.2138 151.398 61.3823 151.685 62.1802 153.375C61.7631 153.465 61.3641 153.662 61.4548 154.04C62.4703 158.784 70.5943 156.052 68.1281 153.303C68.2188 153.159 72.7523 153.932 70.141 148.163C68.926 145.486 62.8692 140.274 61.1102 146.204C60.3305 146.456 58.6984 143.958 57.1026 145.863C56.486 146.582 56.0327 147.444 55.6882 148.361C54.7271 148.559 53.8022 148.9 52.9862 149.385C50.8464 150.679 53.095 152.656 52.7323 153.375C46.5486 154.237 50.8645 160.94 53.367 162.522C58.7346 165.918 58.6258 161.354 58.789 161.3C61.1827 164.121 65.0815 156.555 60.4936 154.866C60.1128 154.722 59.8771 155.1 59.732 155.495C58.1544 154.471 57.5922 156.214 58.7347 156.645C59.4419 156.915 61.0558 158.874 57.7917 160.132C52.4784 160.239 51.7531 152.009 58.4083 151.524ZM72.0813 129.168C69.4337 123.094 77.1407 119.913 79.4619 124.622C79.8608 128.072 77.3584 127.569 76.7962 127.066C75.8895 126.257 74.5839 127.551 76.2341 128.485C75.9621 128.809 75.7444 129.186 76.0345 129.456C79.6795 132.708 84.6119 125.772 81.0032 124.981C80.9851 124.819 85.1197 122.789 79.5888 119.644C77.0138 118.188 69.0349 117.487 71.1203 123.328C70.6488 123.975 67.838 122.914 67.6748 125.394C67.6022 126.329 67.7473 127.299 68.0012 128.234C67.3483 128.952 66.7862 129.761 66.4235 130.642C65.4624 132.924 68.4545 133.212 68.5815 134.002C64.0842 138.315 71.5555 141.209 74.5113 141.029C80.8764 140.651 78.0837 137.021 78.1743 136.878C81.783 137.758 80.4593 129.384 75.7444 130.678C75.3636 130.786 75.3817 131.217 75.4905 131.63C73.6046 131.738 74.1849 133.463 75.3636 133.14C76.1071 132.942 78.5734 133.589 76.6693 136.5C72.4441 139.681 66.9856 133.427 72.0813 129.168ZM69.869 103.111C64.1205 99.7322 68.4546 92.6697 73.1513 95.1317C75.5268 97.6835 73.2057 98.7258 72.444 98.6719C71.229 98.5461 70.9571 100.361 72.8249 100.145C72.7886 100.559 72.843 101.008 73.2419 101.044C78.12 101.547 77.993 93.065 74.602 94.5207C74.4932 94.3949 76.633 90.3515 70.2861 91.0343C67.3484 91.3398 60.4574 95.4551 65.6256 98.9414C65.6256 99.7501 62.7242 100.523 64.0661 102.625C64.5739 103.434 65.263 104.135 66.0246 104.728C65.9339 105.698 65.952 106.669 66.1696 107.585C66.7499 109.993 69.3431 108.484 69.9234 109.059C68.8353 115.151 76.5967 113.156 78.8997 111.287C83.8322 107.28 79.4075 105.968 79.3894 105.788C82.8349 104.405 76.7961 98.3844 73.7496 102.194C73.4957 102.5 73.7859 102.841 74.1123 103.111C72.6435 104.297 74.1486 105.357 74.9102 104.405C75.3998 103.812 77.7754 102.913 77.9567 106.381C76.4153 111.395 68.2914 109.526 69.869 103.111ZM52.6417 83.3069C45.9865 83.918 45.3155 75.6874 50.5562 74.9326C53.9835 75.6155 52.7323 77.8259 52.0795 78.2033C51.0277 78.8143 51.88 80.4316 53.2582 79.1737C53.4758 79.5331 53.7841 79.8566 54.1287 79.6589C58.372 77.2329 53.24 70.422 51.3541 73.6028C51.1909 73.5668 50.5199 69.0382 45.8051 73.2793C43.6109 75.2561 40.4737 82.5702 46.7299 82.3904C47.2014 83.0374 45.3155 85.3556 47.6548 86.2721C48.5434 86.6315 49.5045 86.7933 50.4837 86.8472C50.9733 87.6918 51.5717 88.4645 52.2971 89.0755C54.2012 90.6929 55.398 87.9614 56.1959 88.0872C58.9341 93.6581 64.0299 87.5121 64.7734 84.6727C66.3691 78.5627 62.0169 80.0722 61.9081 79.9464C63.8666 76.8195 55.4161 75.4717 55.1985 80.3238C55.1804 80.7192 55.6156 80.827 56.0327 80.8629C55.5431 82.678 57.3927 82.66 57.4471 81.456C57.4834 80.7012 58.8797 78.5807 61.0739 81.2763C62.8511 86.2182 55.1623 89.435 52.6417 83.3069ZM25.3317 58.2199C23.1738 57.3213 20.4174 56.9619 18.749 58.9207C18.6402 58.9207 18.5133 58.9028 18.3864 58.8848C17.244 54.8953 12.7285 57.2495 6.0552 61.814C-1.88752 63.3415 -6.74741 64.905 -4.68013 68.4991C-4.7708 68.589 -4.84334 68.6968 -4.91588 68.7866C-7.49092 68.589 -9.15927 70.7814 -10.0297 72.9558C-12.3146 73.495 -14.7445 74.8068 -14.9259 77.3587C-15.0165 77.4126 -15.1254 77.4844 -15.2342 77.5563C-18.5164 75.0045 -20.7832 79.5331 -23.467 87.0988C-28.9979 92.9572 -31.99 97.0545 -28.1819 98.7617C-28.1819 98.8875 -28.2 99.0133 -28.2 99.1212C-30.3942 100.469 -30.4487 103.218 -29.8684 105.465C-31.4098 107.226 -32.5885 109.706 -31.2284 111.88C-31.2647 111.988 -31.3191 112.096 -31.3735 112.222C-35.5443 112.06 -34.692 117.056 -32.3708 124.747C-33.3682 132.708 -33.3682 137.776 -29.2699 136.931C-29.1974 137.039 -29.1249 137.147 -29.0705 137.237C-30.0497 139.609 -28.4539 141.855 -26.6586 143.347C-26.8581 145.665 -26.3503 148.361 -23.9566 149.331C-23.9385 149.439 -23.9023 149.565 -23.866 149.691C-27.3296 151.991 -23.6846 155.531 -17.247 160.401C-13.3301 167.428 -10.3198 171.525 -7.50904 168.452C-7.3821 168.506 -7.27329 168.542 -7.16449 168.578C-6.56606 171.058 -3.93666 171.956 -1.59737 172.1C-0.382389 174.095 1.6305 175.982 4.133 175.353C4.22367 175.425 4.31438 175.515 4.40505 175.586C2.95433 179.468 8.01372 180.205 16.1196 180.403C23.4639 183.799 28.3238 185.362 28.7772 181.247C28.9041 181.211 29.0311 181.175 29.1399 181.157C31.0984 182.811 33.7641 182.02 35.7407 180.762C37.8987 181.661 40.655 182.02 42.3233 180.061C42.4321 180.061 42.5591 180.079 42.686 180.097C43.8285 184.087 48.3439 181.732 55.0172 177.168C62.9599 175.64 67.8198 174.077 65.7525 170.483C65.8432 170.393 65.9158 170.285 65.9883 170.195C68.5633 170.393 70.2317 168.2 71.1021 166.026C73.387 165.505 75.817 164.175 75.9983 161.623C76.089 161.569 76.1978 161.497 76.3066 161.426C79.5889 163.977 81.8556 159.449 84.5394 151.883C90.0703 146.025 93.0625 141.927 89.2543 140.22C89.2543 140.094 89.2724 139.969 89.2724 139.861C91.4666 138.513 91.5211 135.763 90.9408 133.517C92.4822 131.756 93.6609 129.276 92.3008 127.102C92.3371 126.994 92.3914 126.886 92.4458 126.76C96.6167 126.922 95.7645 121.926 93.4433 114.235C94.4407 106.273 94.4406 101.206 90.3423 102.05C90.2698 101.943 90.1973 101.835 90.1429 101.745C91.1221 99.3727 89.5263 97.1264 87.731 95.6348C87.9305 93.3166 87.4228 90.621 85.0291 89.6506C85.0109 89.5428 84.9747 89.417 84.9384 89.2912C88.402 86.9909 84.757 83.4507 78.3194 78.5807C74.4025 71.5541 71.3922 67.4568 68.5815 70.5298C68.4545 70.4759 68.3457 70.4399 68.2369 70.404C67.6385 67.924 65.009 67.0255 62.6697 66.8817C61.4548 64.887 59.4419 63.0001 56.9394 63.629C56.8488 63.5572 56.758 63.4673 56.6674 63.3954C58.1181 59.5138 53.0587 58.777 44.9528 58.5793C37.6085 55.1828 32.7485 53.6194 32.2952 57.7347C32.1683 57.7706 32.0413 57.8065 31.9325 57.8245C29.9741 56.1712 27.3083 56.9799 25.3317 58.2199ZM15.3943 83.8281C18.3501 86.8651 22.8474 88.1411 27.7436 86.7753C32.803 87.3144 37.0282 85.3197 39.44 81.8334C40.0384 86.0026 42.9036 89.6686 47.691 91.4117C51.4629 94.8082 56.069 95.6348 60.0766 94.2152C58.0818 97.9351 58.245 102.572 61.0739 106.777C62.1257 111.719 65.3537 115.079 69.4338 116.265C65.6075 118.116 62.9962 121.962 62.7967 126.994C60.7113 131.612 61.3278 136.195 63.921 139.537C59.732 138.818 55.3436 140.382 52.1883 144.353C47.7636 146.869 45.5512 150.949 45.66 155.154C42.7042 152.117 38.2069 150.841 33.3107 152.207C28.2513 151.667 24.0261 153.662 21.6143 157.149C21.0158 152.979 18.1506 149.313 13.3632 147.57C9.59134 144.174 4.98532 143.347 0.977688 144.767C2.97243 141.047 2.80925 136.41 -0.0196609 132.205C-1.07144 127.263 -4.29933 123.903 -8.37949 122.717C-4.55321 120.866 -1.94189 117.02 -1.74242 111.988C0.342999 107.388 -0.273552 102.787 -2.86672 99.4446C1.32225 100.163 5.71069 98.6 8.86602 94.6285C13.2907 92.1126 15.5031 88.0512 15.3943 83.8281Z" fill="#C3D5E3"/>
<path d="M17.9693 89.9024C18.5496 89.9384 19.1299 90.0103 19.6921 90.1001C19.8009 91.1784 21.3785 91.0705 21.3785 90.0282C21.3785 89.1836 20.2543 88.8601 19.819 89.6149C19.4201 89.543 18.9123 89.4711 18.2776 89.4172C18.0056 89.1297 17.788 88.8601 17.4434 88.5906C17.4072 89.0219 17.4434 89.3633 17.4616 89.7587C17.0445 90.2439 16.7362 90.6572 16.5186 90.9807C15.6663 90.765 15.1223 91.7894 15.7207 92.3824C16.4823 93.1192 17.6611 92.0769 16.9538 91.2502C17.244 90.783 17.5885 90.3337 17.9693 89.9024Z" fill="#C3D5E3"/>
<path d="M37.9168 88.2311C38.3701 88.5905 38.7872 88.9859 39.1862 89.3992C38.624 90.3337 39.9659 91.1603 40.5825 90.3157C41.0721 89.6328 40.383 88.7163 39.567 89.0577C39.2949 88.7702 38.9141 88.4108 38.4245 87.9975C38.3701 87.6021 38.352 87.2607 38.2432 86.8474C37.953 87.1708 37.7898 87.4584 37.5541 87.7998C36.9375 87.9436 36.4298 88.1053 36.0671 88.2491C35.5049 87.5841 34.4532 88.0873 34.5982 88.914C34.7796 89.9383 36.3391 89.7945 36.2665 88.7163C36.8106 88.5366 37.3546 88.3749 37.9168 88.2311Z" fill="#C3D5E3"/>
<path d="M55.0534 98.5104C55.1985 99.0675 55.3074 99.6246 55.3799 100.182C54.3826 100.613 54.9628 102.069 55.9783 101.745C56.7762 101.494 56.7581 100.325 55.8876 100.146C55.8332 99.7504 55.7426 99.2292 55.5975 98.6362C55.797 98.2768 55.9783 97.9892 56.1415 97.5939C55.7245 97.7017 55.3981 97.8275 55.0172 97.9713C54.437 97.7377 53.9292 97.5759 53.5484 97.4681C53.494 96.5875 52.3334 96.3899 51.9526 97.1446C51.4811 98.0791 52.8412 98.8698 53.4214 97.9533C53.9836 98.0971 54.5276 98.2947 55.0534 98.5104Z" fill="#C3D5E3"/>
<path d="M62.8149 116.805C62.5973 117.344 62.3615 117.865 62.0895 118.35C61.0196 118.116 60.6388 119.626 61.6362 119.949C62.4341 120.201 63.105 119.267 62.5247 118.602C62.7242 118.26 62.9419 117.793 63.1776 117.2C63.5403 117.038 63.8667 116.894 64.2293 116.679C63.8304 116.517 63.504 116.445 63.105 116.337C62.7786 115.798 62.4704 115.385 62.2165 115.061C62.688 114.325 61.872 113.498 61.1103 113.875C60.1674 114.361 60.8021 115.798 61.8176 115.385C62.1803 115.852 62.5067 116.319 62.8149 116.805Z" fill="#C3D5E3"/>
<path d="M-1.76053 122.178C-1.54293 121.639 -1.30714 121.117 -1.03513 120.632C0.0347822 120.866 0.415597 119.356 -0.581776 119.033C-1.37967 118.781 -2.05067 119.716 -1.47038 120.381C-1.66986 120.722 -1.88744 121.189 -2.12318 121.782C-2.48586 121.944 -2.81231 122.088 -3.17499 122.304C-2.77604 122.465 -2.44963 122.537 -2.05069 122.645C-1.72427 123.184 -1.41596 123.597 -1.16208 123.921C-1.63356 124.658 -0.817558 125.484 -0.055928 125.107C0.887043 124.622 0.25238 123.184 -0.763127 123.597C-1.14394 123.148 -1.47039 122.681 -1.76053 122.178Z" fill="#C3D5E3"/>
<path d="M2.80927 102.859C3.29889 102.554 3.80662 102.266 4.31437 102.033C5.03973 102.841 6.25472 101.835 5.62003 100.99C5.13041 100.307 4.02424 100.685 4.09677 101.565C3.73409 101.745 3.2626 101.979 2.73672 102.32C2.33777 102.248 2.01133 102.158 1.57611 102.14C1.81185 102.518 2.02949 102.769 2.28337 103.075C2.22896 103.704 2.22898 104.225 2.24712 104.62C1.43108 104.944 1.59425 106.094 2.42841 106.22C3.48019 106.382 3.80664 104.836 2.75487 104.584C2.75487 104.009 2.75487 103.434 2.80927 102.859Z" fill="#C3D5E3"/>
<path d="M18.4408 90.9805C18.8035 91.0344 19.1843 91.1063 19.547 91.1961C19.7283 91.25 20.3811 90.8188 18.2413 90.5312C16.9538 92.2384 17.7154 92.0947 17.8061 91.915C18.0056 91.5915 18.2051 91.286 18.4408 90.9805Z" fill="#C3D5E3"/>
<path d="M37.6448 89.381C37.9168 89.6326 38.1707 89.9201 38.4065 90.2076C38.5334 90.3514 39.295 90.3873 37.7536 88.9137C35.7045 89.5607 36.4117 89.8662 36.5749 89.7943C36.9557 89.6326 37.3003 89.5068 37.6448 89.381Z" fill="#C3D5E3"/>
<path d="M54.1468 99.2831C54.2012 99.6425 54.2556 100.02 54.2737 100.397C54.2918 100.595 54.8903 101.062 54.5095 98.9596C52.4785 98.2767 52.8593 98.9416 53.0406 98.9776C53.4396 99.0854 53.8022 99.1752 54.1468 99.2831Z" fill="#C3D5E3"/>
<path d="M61.618 116.912C61.4548 117.236 61.2735 117.559 61.0558 117.901C60.947 118.063 61.1647 118.799 62.1076 116.876C60.8564 115.133 60.7839 115.906 60.9109 116.05C61.1647 116.319 61.4004 116.607 61.618 116.912Z" fill="#C3D5E3"/>
<path d="M3.82462 103.47C4.15103 103.29 4.49559 103.146 4.85828 103.003C5.03962 102.931 5.31159 102.212 3.40752 103.218C3.38938 105.357 3.89716 104.782 3.87902 104.602C3.84275 104.207 3.82462 103.847 3.82462 103.47Z" fill="#C3D5E3"/>
<path d="M27.9611 89.3272C27.6347 89.1655 27.1451 89.2014 26.3109 89.7225C26.0027 89.9022 25.8576 88.9139 24.9327 89.1475C23.9354 89.417 24.1892 90.7469 24.1892 90.7469C24.1892 90.7469 26.0571 89.9202 28.0699 90.7109C29.9196 89.6147 31.9144 90.0999 31.9144 90.0999C31.9144 90.0999 31.9506 88.7521 30.917 88.6443C29.9559 88.5544 29.9921 89.5608 29.6476 89.435C28.759 89.0756 28.2694 89.1115 27.9611 89.3272Z" fill="#C3D5E3"/>
<path d="M46.3491 93.6042C46.1859 93.2807 45.7507 93.0291 44.7896 92.9572C44.4269 92.9213 44.8984 92.0407 44.0099 91.6993C43.0487 91.3219 42.4684 92.5619 42.4684 92.5619C42.4684 92.5619 44.4813 92.9932 45.6419 94.7902C47.7817 94.9699 49.1055 96.5334 49.1055 96.5334C49.1055 96.5334 49.9396 95.4552 49.1599 94.7723C48.4345 94.1433 47.8543 94.9699 47.673 94.6644C47.1471 93.8558 46.7299 93.6042 46.3491 93.6042Z" fill="#C3D5E3"/>
<path d="M58.6984 107.765C58.7528 107.406 58.5534 106.957 57.8099 106.328C57.5379 106.094 58.4446 105.645 57.9187 104.854C57.3565 103.991 56.1597 104.656 56.1597 104.656C56.1597 104.656 57.5198 106.166 57.3928 108.304C59.0249 109.706 59.1518 111.737 59.1518 111.737C59.1518 111.737 60.4575 111.359 60.2399 110.353C60.0223 109.419 59.0612 109.76 59.0974 109.401C59.17 108.43 58.9886 107.981 58.6984 107.765Z" fill="#C3D5E3"/>
<path d="M0.77823 112.581C0.524354 112.833 0.415518 113.318 0.633127 114.253C0.723797 114.594 -0.291726 114.432 -0.346128 115.385C-0.40053 116.409 0.959527 116.571 0.959527 116.571C0.959527 116.571 0.760079 114.54 2.12013 112.905C1.63051 110.82 2.71853 109.095 2.71853 109.095C2.71853 109.095 1.43101 108.646 1.01393 109.58C0.633112 110.461 1.61237 110.748 1.37663 111.018C0.778206 111.755 0.669426 112.24 0.77823 112.581Z" fill="#C3D5E3"/>
<path d="M10.5525 96.5694C10.1898 96.6233 9.82717 96.9468 9.44635 97.8453C9.30128 98.1688 8.59402 97.45 7.9956 98.1868C7.34277 98.9775 8.34015 99.912 8.34015 99.912C8.34015 99.912 9.37379 98.1508 11.4592 97.6117C12.2934 95.6349 14.1975 94.8802 14.1975 94.8802C14.1975 94.8802 13.4177 93.766 12.5291 94.2871C11.6949 94.7723 12.3296 95.581 11.967 95.6709C11.0421 95.9045 10.6794 96.228 10.5525 96.5694Z" fill="#C3D5E3"/>
<path d="M29.2487 104.423C27.0726 105.178 23.3007 104.423 22.7748 100.361C24.1168 99.8402 22.7023 98.0072 21.85 99.0315C20.5081 98.9417 20.8526 101.206 22.1583 100.613C24.7152 103.83 22.6298 107.011 20.5444 108.035C19.2206 109.922 15.7388 111.503 12.9099 108.52C13.6897 107.316 11.4592 106.651 11.3685 107.981C10.2261 108.682 11.84 110.317 12.5654 109.077C16.5368 110.191 16.7362 113.983 15.6663 116.014C15.7207 118.296 13.8348 121.621 9.77274 120.866C9.68207 119.446 7.50596 120.201 8.21318 121.333C7.70543 122.555 9.99035 122.951 9.82714 121.531C13.6897 120.111 16.1196 123.076 16.4461 125.341C17.8424 127.174 18.2776 130.947 14.5601 132.691C13.6353 131.594 12.3296 133.481 13.5628 133.985C13.8892 135.278 15.9565 134.254 14.9954 133.194C17.2803 129.797 20.9977 130.786 22.6116 132.421C24.824 133.086 27.4172 135.889 25.4405 139.466C24.0442 139.106 24.0986 141.406 25.4043 141.083C26.4198 141.946 27.5079 139.915 26.0934 139.609C25.9302 135.53 29.5207 134.164 31.7875 134.542C33.9636 133.787 37.7354 134.542 38.2613 138.603C36.9194 139.124 38.3339 140.957 39.1862 139.933C40.5281 140.023 40.1835 137.758 38.8779 138.351C36.321 135.135 38.4064 131.954 40.4918 130.93C41.8156 129.043 45.2974 127.461 48.1263 130.444C47.3466 131.648 49.577 132.313 49.6677 130.983C50.8101 130.283 49.1961 128.647 48.4708 129.887C44.4994 128.773 44.3 124.981 45.3699 122.951C45.3155 120.668 47.2015 117.344 51.2635 118.098C51.3541 119.518 53.5302 118.763 52.823 117.631C53.3307 116.409 51.0458 116.014 51.209 117.434C47.3465 118.853 44.9165 115.888 44.5901 113.624C43.1938 111.791 42.7586 108.017 46.4761 106.274C47.4009 107.37 48.7065 105.483 47.4734 104.98C47.147 103.686 45.0798 104.71 46.0409 105.771C43.756 109.167 40.0385 108.179 38.4245 106.543C36.2122 105.878 33.619 103.075 35.5956 99.4988C36.9919 99.8582 36.9376 97.5579 35.6319 97.8814C34.6164 97.0188 33.5284 99.0495 34.9428 99.355C35.106 103.452 31.5336 104.818 29.2487 104.423ZM20.1998 95.1319C21.3423 95.5991 22.0676 97.0009 23.6815 96.1023C20.7801 93.8021 18.8216 94.8623 21.0158 93.9998C25.0053 92.0589 23.9535 96.282 26.855 95.3296C26.855 95.3296 25.368 93.6044 23.8992 93.1372C25.6763 92.9395 27.2721 93.5145 28.4327 94.467C29.3938 93.3348 30.8808 92.4902 32.6761 92.4004C31.2979 93.1192 30.1192 95.0421 30.1192 95.0421C33.1475 95.5093 31.3885 91.5198 35.65 92.7598C37.9712 93.263 35.8495 92.5262 33.3652 95.2757C35.106 95.8867 35.5775 94.3771 36.6293 93.7482C37.2821 94.7905 37.0283 96.3539 38.8598 96.5696C37.8806 93.0114 35.6501 92.7418 37.9531 93.2989C42.3234 94.0537 38.9686 96.8571 41.8881 97.7736C41.8881 97.7736 41.7068 95.5273 40.8001 94.2693C42.3596 95.1319 43.3208 96.5336 43.6653 97.9892C45.116 97.6298 46.8206 97.8275 48.3258 98.7979C46.7844 98.5643 44.6808 99.4628 44.6808 99.4628C46.8569 101.601 47.7999 97.3603 50.5019 100.847C52.0795 102.608 50.792 100.775 47.1652 101.565C48.2169 103.075 49.4864 102.14 50.7195 102.23C50.6288 103.452 49.5044 104.567 50.8645 105.806C52.1883 102.356 50.5381 100.847 52.0614 102.644C55.1442 105.806 50.7738 106.112 52.5872 108.556C52.5872 108.556 53.7841 106.633 53.766 105.088C54.5095 106.705 54.4551 108.394 53.8929 109.76C55.2893 110.317 56.5405 111.467 57.1752 113.121C56.069 112.042 53.8385 111.539 53.8385 111.539C54.3281 114.54 57.6104 111.647 57.7374 116.05C57.9731 118.386 58.0093 116.158 54.6182 114.684C54.5638 116.517 56.1596 116.499 57.1026 117.29C56.3047 118.224 54.7271 118.476 55.0897 120.273C58.1907 118.26 57.7736 116.068 57.9368 118.404C58.5534 122.753 54.8359 120.471 54.854 123.49C54.854 123.49 56.9576 122.627 57.8643 121.369C57.5016 123.112 56.4679 124.442 55.1804 125.233C55.9783 126.491 56.3047 128.162 55.8513 129.869C55.5975 128.342 54.0924 126.652 54.0924 126.652C52.7142 129.366 57.0845 128.935 54.5639 132.565C53.367 134.596 54.7271 132.816 52.8411 129.636C51.7168 131.091 53.0044 132.008 53.3126 133.194C52.1158 133.481 50.7013 132.763 49.9216 134.434C53.6391 134.614 54.582 132.601 53.3308 134.578C51.2454 138.459 49.5951 134.434 47.818 136.896C47.818 136.896 50.0304 137.417 51.5174 136.95C50.1936 138.154 48.5615 138.621 47.0564 138.513C46.9476 140.005 46.2403 141.532 44.844 142.646C45.5331 141.263 45.3336 139.016 45.3336 139.016C42.6135 140.4 46.3854 142.61 42.2145 144.084C40.0385 145.019 42.1964 144.39 42.5591 140.724C40.782 141.245 41.2897 142.736 40.8364 143.868C39.694 143.401 38.9686 141.999 37.3546 142.898C40.2561 145.198 42.2146 144.138 40.0203 145.001C36.0308 146.941 37.0826 142.718 34.1812 143.671C34.1812 143.671 35.6682 145.396 37.137 145.863C35.3599 146.061 33.7641 145.486 32.6035 144.533C31.6424 145.665 30.1554 146.51 28.3602 146.6C29.7383 145.881 30.9171 143.958 30.9171 143.958C27.8887 143.491 29.6476 147.481 25.3861 146.241C23.065 145.737 25.1867 146.474 27.671 143.725C25.9302 143.114 25.4587 144.623 24.4069 145.252C23.7541 144.21 24.008 142.646 22.1764 142.431C23.1557 145.989 25.3862 146.259 23.0831 145.701C18.7128 144.947 22.0676 142.143 19.148 141.227C19.148 141.227 19.3294 143.473 20.2361 144.731C18.6765 143.868 17.7155 142.467 17.3709 141.011C15.9202 141.37 14.2156 141.173 12.7105 140.202C14.2518 140.436 16.3554 139.537 16.3554 139.537C14.1793 137.399 13.2363 141.64 10.5343 138.154C8.95668 136.393 10.2442 138.226 13.8711 137.435C12.8193 135.925 11.5499 136.86 10.3167 136.77C10.4074 135.548 11.5317 134.434 10.1717 133.194C8.84791 136.644 10.4981 138.154 8.97484 136.357C5.89205 133.194 10.2623 132.888 8.44894 130.444C8.44894 130.444 7.2521 132.367 7.27023 133.913C6.52674 132.295 6.58113 130.606 7.14328 129.24C5.74696 128.683 4.49571 127.533 3.86102 125.88C4.9672 126.958 7.19768 127.461 7.19768 127.461C6.70806 124.46 3.42581 127.353 3.29887 122.951C3.06313 120.614 3.02686 122.843 6.41793 124.316C6.47233 122.483 4.87654 122.501 3.93357 121.711C4.73147 120.776 6.30911 120.524 5.94643 118.727C2.8455 120.74 3.26263 122.933 3.09942 120.596C2.48286 116.247 6.20031 118.53 6.18218 115.511C6.18218 115.511 4.07862 116.373 3.17192 117.631C3.5346 115.888 4.56826 114.558 5.85578 113.768C5.05788 112.51 4.73148 110.838 5.18483 109.131C5.4387 110.659 6.94383 112.348 6.94383 112.348C8.32202 109.634 3.9517 110.066 6.47233 106.435C7.66918 104.405 6.30915 106.184 8.19509 109.365C9.3194 107.909 8.03186 106.993 7.72359 105.806C8.92043 105.519 10.3349 106.238 11.1146 104.567C7.39716 104.387 6.45418 106.4 7.70543 104.423C9.79085 100.541 11.4411 104.567 13.2182 102.105C13.2182 102.105 11.0058 101.583 9.51884 102.051C10.8426 100.847 12.4747 100.379 13.9799 100.487C14.0887 98.9956 14.7959 97.4681 16.1922 96.3539C15.5031 97.7377 15.7026 99.984 15.7026 99.984C18.4227 98.6003 14.6508 96.3899 18.8216 94.9163C20.9977 93.9818 18.8398 94.6108 18.4771 98.2768C20.2361 97.7736 19.7283 96.2641 20.1998 95.1319ZM28.9405 100.775C26.71 102.716 24.2981 99.9301 25.9846 98.3127C27.3991 97.6658 27.526 98.78 27.399 99.1034C27.1814 99.5886 27.9068 99.966 28.07 99.1394C28.2513 99.2113 28.4327 99.2472 28.5052 99.0855C29.3938 97.1087 25.7488 95.9945 25.912 97.6298C25.8395 97.6658 24.4069 96.2101 23.8266 98.9597C23.5546 100.236 24.3525 103.668 26.5649 101.997C26.9094 102.105 26.8369 103.434 27.925 103.165C28.342 103.057 28.7228 102.877 29.0855 102.644C29.4845 102.823 29.9015 102.949 30.3186 102.967C31.4248 103.057 31.1346 101.763 31.4611 101.601C33.9092 102.895 34.1268 99.373 33.6372 98.151C32.6035 95.5452 31.443 97.2165 31.3704 97.1806C31.2616 95.5452 27.8524 97.2524 29.0674 99.0495C29.158 99.1933 29.3575 99.1214 29.5026 99.0315C29.8109 99.8043 30.4637 99.3191 30.1736 98.8698C29.9922 98.5823 29.9197 97.4681 31.4248 97.8635C33.3652 99.1753 31.4611 102.32 28.9405 100.775ZM18.1325 105.267C17.4797 108.143 13.871 107.28 14.2881 104.998C15.0497 103.65 15.8114 104.477 15.8839 104.818C15.9927 105.339 16.8088 105.213 16.4642 104.459C16.6456 104.423 16.8269 104.333 16.7906 104.171C16.3373 102.069 12.7286 103.273 13.8348 104.495C13.7985 104.567 11.7856 104.207 12.9462 106.777C13.4902 107.963 16.174 110.281 16.9538 107.64C17.2984 107.532 18.0237 108.628 18.731 107.783C19.003 107.46 19.2025 107.082 19.3657 106.669C19.7828 106.579 20.1998 106.435 20.5625 106.22C21.5054 105.645 20.5081 104.764 20.6713 104.459C23.4277 104.081 21.5055 101.098 20.3993 100.397C18.0056 98.8878 18.06 100.918 17.9875 100.936C16.9176 99.6785 15.1948 103.039 17.2258 103.794C17.389 103.848 17.4978 103.686 17.5704 103.524C18.2776 103.973 18.5133 103.201 18.0237 103.021C17.7154 102.895 16.9901 102.033 18.4408 101.476C20.7801 101.404 21.0884 105.052 18.1325 105.267ZM12.0757 115.205C13.2545 117.901 9.82713 119.32 8.79349 117.218C8.61215 115.69 9.71831 115.906 9.97219 116.14C10.3711 116.499 10.9515 115.924 10.2261 115.511C10.353 115.367 10.4437 115.205 10.3167 115.079C8.70281 113.642 6.50861 116.715 8.12254 117.074C8.12254 117.146 6.29101 118.045 8.75724 119.446C9.89968 120.093 13.454 120.399 12.511 117.811C12.7286 117.523 13.9617 117.991 14.0343 116.894C14.0705 116.481 13.998 116.05 13.8892 115.636C14.1793 115.313 14.4332 114.954 14.5964 114.576C15.0316 113.552 13.6897 113.426 13.6353 113.085C15.6301 111.18 12.3115 109.886 11.0058 109.958C8.17693 110.119 9.42819 111.737 9.37379 111.809C7.77799 111.413 8.35829 115.133 10.4618 114.558C10.6251 114.504 10.625 114.325 10.5706 114.145C11.4048 114.109 11.1509 113.336 10.625 113.48C10.2986 113.57 9.21058 113.282 10.0447 111.988C11.9125 110.533 14.3244 113.3 12.0757 115.205ZM13.055 126.778C15.6119 128.27 13.6716 131.415 11.6043 130.319C10.5525 129.186 11.5861 128.719 11.9125 128.755C12.4566 128.809 12.5835 128 11.7493 128.108C11.7675 127.928 11.7493 127.731 11.568 127.713C9.41004 127.497 9.44634 131.253 10.9696 130.606C11.024 130.66 10.0629 132.457 12.8918 132.152C14.1975 132.008 17.2621 130.193 14.9591 128.629C14.9591 128.27 16.2466 127.928 15.6482 126.994C15.4306 126.635 15.1223 126.329 14.7778 126.059C14.814 125.628 14.814 125.197 14.7052 124.784C14.4513 123.705 13.2907 124.388 13.0369 124.137C13.5265 121.423 10.0629 122.322 9.04739 123.148C6.85317 124.927 8.82974 125.52 8.82974 125.592C7.30648 126.203 9.99032 128.881 11.3322 127.192C11.441 127.048 11.3141 126.904 11.169 126.778C11.8219 126.257 11.1509 125.79 10.8245 126.203C10.6069 126.473 9.55511 126.868 9.46444 125.323C10.1354 123.094 13.7441 123.921 13.055 126.778ZM20.7076 135.566C23.6634 135.296 23.9536 138.944 21.6324 139.286C20.1092 138.98 20.6713 138.01 20.9614 137.83C21.4329 137.561 21.0521 136.842 20.4356 137.399C20.3449 137.237 20.1998 137.093 20.0547 137.183C18.1688 138.262 20.4537 141.281 21.2879 139.879C21.3604 139.897 21.6505 141.91 23.7541 140.023C24.7333 139.142 26.1115 135.889 23.337 135.979C23.1194 135.692 23.9536 134.667 22.9381 134.254C22.5391 134.092 22.122 134.02 21.6868 134.002C21.4692 133.625 21.1972 133.284 20.8708 133.014C20.0185 132.295 19.4926 133.499 19.1299 133.463C17.9149 130.983 15.6482 133.715 15.3218 134.973C14.6145 137.686 16.5368 137.022 16.5912 137.075C15.7207 138.459 19.4745 139.07 19.5651 136.914C19.5651 136.734 19.3838 136.68 19.2024 136.68C19.42 135.871 18.604 135.889 18.5678 136.411C18.5496 136.752 17.9331 137.686 16.9538 136.5C16.174 134.272 19.5833 132.852 20.7076 135.566ZM32.1139 138.226C34.3444 136.285 36.7562 139.07 35.0697 140.688C33.6553 141.335 33.5283 140.22 33.6553 139.897C33.8729 139.412 33.1475 139.034 32.9843 139.861C32.803 139.789 32.6217 139.753 32.5491 139.915C31.6605 141.892 35.3055 143.006 35.1423 141.37C35.2148 141.335 36.6474 142.79 37.2277 140.041C37.4997 138.765 36.7018 135.332 34.4895 137.004C34.1449 136.896 34.2175 135.566 33.1294 135.836C32.7123 135.943 32.3315 136.123 31.9688 136.357C31.5699 136.177 31.1528 136.051 30.7357 136.033C29.6295 135.943 29.9197 137.237 29.5933 137.399C27.1452 136.105 26.9275 139.627 27.4171 140.849C28.4508 143.455 29.6114 141.784 29.6839 141.82C29.7927 143.455 33.2019 141.748 31.987 139.951C31.8963 139.807 31.6968 139.879 31.5518 139.969C31.2435 139.196 30.5906 139.681 30.8808 140.131C31.0621 140.418 31.1346 141.532 29.6295 141.137C27.671 139.825 29.5933 136.68 32.1139 138.226ZM42.9036 133.715C43.5565 130.84 47.1652 131.702 46.7481 133.985C45.9865 135.332 45.2248 134.506 45.1523 134.164C45.0435 133.643 44.2275 133.769 44.572 134.524C44.3907 134.56 44.2093 134.649 44.2456 134.811C44.699 136.914 48.3076 135.71 47.2015 134.488C47.2377 134.416 49.2506 134.775 48.09 132.205C47.546 131.019 44.8621 128.701 44.0824 131.343C43.7378 131.451 43.0125 130.354 42.3052 131.199C42.0332 131.523 41.8338 131.9 41.6705 132.313C41.2535 132.403 40.8364 132.547 40.4737 132.763C39.5307 133.338 40.5281 134.218 40.3649 134.524C37.6085 134.901 39.5307 137.884 40.6369 138.585C43.0306 140.095 42.9762 138.064 43.0488 138.046C44.1187 139.304 45.8414 135.943 43.8104 135.189C43.6471 135.135 43.5383 135.296 43.4658 135.458C42.7586 135.009 42.5228 135.782 43.0125 135.961C43.3207 136.087 44.0461 136.95 42.5954 137.507C40.2742 137.597 39.9478 133.931 42.9036 133.715ZM48.9786 123.795C47.7999 121.1 51.2272 119.68 52.2608 121.782C52.4422 123.31 51.3359 123.094 51.0821 122.861C50.6831 122.501 50.1029 123.076 50.8283 123.49C50.7013 123.633 50.6106 123.795 50.7375 123.921C52.3515 125.359 54.5457 122.286 52.9318 121.926C52.9318 121.854 54.7634 120.956 52.2971 119.554C51.1547 118.907 47.6004 118.602 48.5434 121.189C48.3258 121.477 47.0926 121.01 47.0201 122.106C46.9838 122.519 47.0564 122.951 47.1652 123.364C46.875 123.687 46.6211 124.047 46.4579 124.424C46.0227 125.448 47.3647 125.574 47.4191 125.916C45.4243 127.821 48.7429 129.114 50.0485 129.043C52.8774 128.881 51.6261 127.263 51.6805 127.192C53.2763 127.587 52.6961 123.867 50.5925 124.442C50.4293 124.496 50.4293 124.676 50.4837 124.855C49.6496 124.891 49.9034 125.664 50.4293 125.52C50.7557 125.43 51.8437 125.718 51.0096 127.012C49.1418 128.468 46.7118 125.682 48.9786 123.795ZM47.9994 112.222C45.4425 110.73 47.3828 107.586 49.4501 108.682C50.5019 109.814 49.4682 110.281 49.1418 110.245C48.5978 110.191 48.4708 111 49.305 110.892C49.2868 111.072 49.305 111.27 49.4864 111.288C51.6443 111.503 51.608 107.747 50.0847 108.394C50.0303 108.34 50.9914 106.543 48.1625 106.849C46.8569 106.993 43.7922 108.808 46.0953 110.371C46.0953 110.73 44.8077 111.072 45.4062 112.006C45.6238 112.366 45.9321 112.671 46.2766 112.941C46.2403 113.372 46.2403 113.803 46.3491 114.217C46.603 115.295 47.7635 114.612 48.0174 114.864C47.5278 117.577 50.9914 116.679 52.0069 115.852C54.2011 114.073 52.2245 113.48 52.2245 113.408C53.7478 112.797 51.0639 110.119 49.722 111.809C49.6132 111.952 49.7402 112.096 49.8853 112.222C49.2324 112.743 49.9034 113.21 50.2298 112.797C50.4474 112.528 51.4992 112.132 51.5899 113.678C50.9008 115.906 47.2921 115.079 47.9994 112.222ZM40.3467 103.434C37.3909 103.704 37.1008 100.056 39.4219 99.7144C40.9452 100.02 40.383 100.99 40.0929 101.17C39.6214 101.44 40.0022 102.158 40.6188 101.601C40.7095 101.763 40.8545 101.907 40.9996 101.817C42.8855 100.739 40.6007 97.7197 39.7665 99.1214C39.694 99.1034 39.4038 97.0907 37.3002 98.9776C36.321 99.8582 34.9428 103.111 37.7173 103.021C37.9349 103.309 37.1008 104.333 38.1163 104.746C38.5152 104.908 38.9323 104.98 39.3675 104.998C39.5852 105.375 39.8571 105.717 40.1835 105.986C41.0358 106.705 41.5617 105.501 41.9244 105.537C43.1394 108.017 45.4061 105.285 45.7326 104.027C46.4398 101.314 44.5176 101.979 44.4632 101.925C45.3336 100.541 41.5799 99.9301 41.4892 102.087C41.4892 102.266 41.6706 102.32 41.8519 102.32C41.6343 103.129 42.4503 103.111 42.4866 102.59C42.5047 102.248 43.1213 101.314 44.1005 102.5C44.8803 104.71 41.4711 106.148 40.3467 103.434ZM28.215 92.2746C27.2539 91.8792 26.039 91.7175 25.2955 92.5801C25.2411 92.5801 25.1867 92.5621 25.1323 92.5621C24.6245 90.801 22.6116 91.8433 19.6558 93.856C16.1196 94.5389 13.9617 95.2218 14.8866 96.8211C14.8503 96.8571 14.814 96.911 14.7778 96.9469C13.6353 96.8571 12.8918 97.8275 12.511 98.7979C11.4955 99.0315 10.4074 99.6246 10.3349 100.757C10.2986 100.775 10.2442 100.811 10.1898 100.847C8.73907 99.7144 7.72358 101.727 6.52673 105.088C4.07863 107.693 2.73671 109.508 4.42317 110.263C4.42317 110.317 4.42321 110.371 4.40508 110.425C3.42584 111.018 3.4077 112.24 3.66157 113.246C2.97248 114.019 2.44656 115.133 3.06312 116.104C3.04498 116.14 3.02689 116.194 2.99062 116.247C1.14095 116.176 1.52176 118.386 2.53727 121.818C2.10205 125.359 2.10202 127.605 3.91542 127.228C3.95169 127.281 3.96986 127.317 4.00612 127.371C3.57091 128.414 4.27813 129.42 5.07603 130.085C4.98536 131.109 5.22111 132.313 6.27288 132.745C6.29102 132.798 6.291 132.852 6.30913 132.906C4.76774 133.931 6.38166 135.494 9.24684 137.669C10.9877 140.795 12.3296 142.61 13.5628 141.245C13.6172 141.263 13.6715 141.281 13.7078 141.299C13.9798 142.395 15.1404 142.808 16.1741 142.862C16.7181 143.743 17.6067 144.587 18.731 144.318C18.7672 144.354 18.8035 144.39 18.8579 144.425C18.2232 146.151 20.4537 146.474 24.0624 146.564C27.3265 148.074 29.4844 148.774 29.6839 146.941C29.7383 146.923 29.7928 146.905 29.8472 146.905C30.7176 147.642 31.8963 147.283 32.7849 146.726C33.746 147.121 34.9609 147.283 35.7044 146.42C35.7588 146.42 35.8132 146.438 35.8676 146.438C36.3754 148.199 38.3883 147.157 41.3441 145.144C44.8803 144.461 47.0382 143.779 46.1134 142.179C46.1497 142.143 46.1859 142.089 46.2222 142.053C47.3647 142.143 48.1081 141.173 48.4889 140.202C49.5044 139.969 50.5925 139.376 50.665 138.244C50.7013 138.226 50.7557 138.19 50.8101 138.154C52.2609 139.286 53.2764 137.273 54.4732 133.913C56.9213 131.307 58.2632 129.492 56.5767 128.737C56.5767 128.683 56.5768 128.629 56.5949 128.575C57.5741 127.982 57.5922 126.76 57.3383 125.754C58.0274 124.981 58.5534 123.867 57.9368 122.897C57.9549 122.843 57.973 122.807 58.0093 122.753C59.859 122.825 59.4782 120.614 58.4626 117.182C58.8979 113.642 58.8978 111.395 57.0844 111.773C57.0482 111.719 57.0301 111.683 56.9938 111.629C57.429 110.587 56.7218 109.58 55.9239 108.915C56.0146 107.891 55.7788 106.687 54.727 106.256C54.7089 106.202 54.709 106.148 54.6908 106.094C56.2322 105.07 54.6183 103.506 51.7531 101.332C50.0123 98.2049 48.6703 96.3899 47.4372 97.7556C47.3828 97.7377 47.3284 97.7197 47.2921 97.7017C47.0201 96.6055 45.8595 96.1922 44.8259 96.1383C44.2818 95.2577 43.3933 94.4131 42.2689 94.6826C42.2327 94.6467 42.1965 94.6108 42.1421 94.5748C42.7767 92.8496 40.5281 92.5262 36.9375 92.4363C33.6734 90.9268 31.5155 90.2259 31.316 92.0589C31.2616 92.0769 31.2072 92.0949 31.1528 92.0949C30.2824 91.376 29.1036 91.7354 28.215 92.2746ZM23.8085 103.65C25.1141 104.998 27.1089 105.573 29.3031 104.962C31.5517 105.195 33.4196 104.315 34.4895 102.769C34.7615 104.62 36.0308 106.238 38.1525 107.028C39.839 108.538 41.87 108.897 43.6472 108.268C42.7586 109.922 42.8311 111.97 44.0824 113.839C44.5538 116.032 45.9864 117.523 47.7998 118.062C46.0952 118.889 44.9347 120.596 44.844 122.825C43.9192 124.873 44.1912 126.904 45.3518 128.396C43.484 128.072 41.5436 128.773 40.1291 130.534C38.1707 131.648 37.1733 133.463 37.2277 135.332C35.922 133.985 33.9273 133.409 31.7331 134.02C29.4844 133.787 27.6167 134.667 26.5467 136.213C26.2747 134.362 25.0053 132.745 22.8836 131.954C21.1972 130.444 19.1662 130.085 17.389 130.714C18.2776 129.061 18.2051 127.012 16.9538 125.143C16.4823 122.951 15.0498 121.459 13.2364 120.92C14.941 120.093 16.1015 118.386 16.1922 116.158C17.1171 114.109 16.845 112.078 15.6845 110.587C17.5523 110.91 19.4926 110.209 20.907 108.448C22.8655 107.334 23.8629 105.537 23.8085 103.65Z" fill="#C3D5E3"/>
</g>
</g>
<defs>
<clipPath id="clip0_1_246">
<rect width="1110" height="120" rx="20" fill="white"/>
</clipPath>
</defs>
</svg>
